<svg width="806" height="1600" viewBox="0 0 806 1600" fill="none" xmlns="http://www.w3.org/2000/svg">
<path d="M239.305 2C239.305 170.714 271.94 356.656 401.083 477.556C461.69 534.293 536.513 581.876 614.639 609.778C640.266 618.93 698.936 641.393 725.083 620C736.411 610.731 735.925 596.202 735.305 582.889C733.954 553.837 693.657 546 671.305 546C645.385 546 630.202 589.309 623.305 610C606.531 660.323 602.97 714.937 592.194 766.889C548.52 977.461 455.174 1197.23 291.083 1340.22C226.79 1396.25 153.746 1462.18 63.7498 1465.78C-0.726116 1468.36 -3.12787 1405.52 5.74984 1354.22C13.1017 1311.74 32.8878 1289.4 75.3054 1290C126.34 1290.72 175.038 1339.09 207.305 1374.89C261.807 1435.36 315.654 1498.65 379.305 1550C401.619 1568 425.225 1598 455.305 1598" stroke="#9AFAE3" stroke-width="3" stroke-linecap="round"/>
</svg>
