<svg width="156" height="65" viewBox="0 0 156 65" fill="none" xmlns="http://www.w3.org/2000/svg">
<path d="M9.43896 17.7638C6.41096 20.3486 1.19293 25.0177 2.10563 29.7638C3.37031 36.3401 13.0157 35.4973 17.6612 34.7638C20.2606 34.3533 22.6656 33.6744 24.8987 32.7363M24.8987 32.7363C27.7351 31.5447 30.2941 29.9348 32.6214 27.9255M24.8987 32.7363C26.6334 33.5223 28.4697 34.0198 30.3709 34.2623M24.8987 32.7363C24.8379 32.7088 24.7773 32.6809 24.7167 32.6527C18.3688 29.6903 29.0976 27.8749 31.0501 27.8749C31.5927 27.8749 32.116 27.8919 32.6214 27.9255M32.6214 27.9255C34.6291 26.1922 36.4644 24.1616 38.1568 21.846M32.6214 27.9255C33.1859 27.963 33.728 28.0212 34.2495 28.0992M38.1568 21.846C38.1768 21.8186 38.1968 21.7912 38.2167 21.7638C39.5681 19.9056 46.9945 12.1762 46.9945 9.98599C46.9945 9.79552 44.2237 12.9764 44.2167 12.986C42.1131 15.8844 40.0792 18.8257 38.1568 21.846ZM38.1568 21.846C37.9157 22.2247 37.6764 22.6047 37.439 22.986C36.3764 24.692 35.3142 26.3969 34.2495 28.0992M34.2495 28.0992C32.9619 30.1579 31.6707 32.213 30.3709 34.2623M34.2495 28.0992C34.9318 28.2012 35.5789 28.3372 36.1951 28.5055M30.3709 34.2623C29.1906 36.1232 28.0032 37.9793 26.8051 39.8289M30.3709 34.2623C30.7249 34.3074 31.0811 34.3437 31.4394 34.3714M26.8051 39.8289C24.4735 43.4285 22.1012 47.0035 19.6612 50.5415C18.6855 51.9563 11.7857 62.6393 12.8834 60.0971C16.0527 52.7577 21.4284 46.1553 26.8051 39.8289ZM26.8051 39.8289C28.3678 37.9902 29.9306 36.1748 31.4394 34.3714M31.4394 34.3714C32.2932 33.3509 33.1296 32.3342 33.939 31.3193C34.6841 30.3849 35.4357 29.4458 36.1951 28.5055M31.4394 34.3714C35.1914 34.6614 39.1638 34.0051 43.0836 32.65M36.1951 28.5055C43.2203 19.8068 50.9098 11.0136 60.3279 4.98599C63.2827 3.09487 71.8024 -1.14959 70.2167 5.98599C67.8569 16.6053 55.7449 28.273 43.0836 32.65M36.1951 28.5055C38.9989 29.2714 41.1626 30.7059 43.0836 32.65M43.0836 32.65C44.9972 34.5866 46.6699 37.0288 48.4945 39.8193C55.097 49.9172 61.7532 55.6136 73.5501 59.1527C84.251 62.3629 96.9902 65.3779 106.439 58.7638M56.439 41.7639C59.6321 41.3451 63.8691 41.5332 67.6302 40.8358M67.6302 40.8358C70.5889 40.2872 73.2532 39.1906 74.8834 36.8194C75.7733 35.525 77.8656 29.8647 73.939 31.375C71.0455 32.4878 67.2586 37.5298 67.6056 40.6527C67.6125 40.715 67.6208 40.776 67.6302 40.8358ZM67.6302 40.8358C68.3778 45.5515 77.0244 42.9177 79.4945 42.2639L79.6411 42.2251C84.826 40.853 90.0635 39.4671 92.2167 33.9861C93.9587 29.5519 92.4707 36.1448 92.439 37.5416C92.1753 49.1424 105.335 29.9475 104.661 33.7639C104.069 37.1217 106.442 41.5264 110.189 40.2979M110.189 40.2979C110.272 40.2708 110.355 40.241 110.439 40.2083C112.314 39.4791 115.851 32.875 115.772 32.875C113.593 32.875 108.96 38.0255 110.106 40.1527C110.133 40.2027 110.16 40.2511 110.189 40.2979ZM110.189 40.2979C112.247 43.6623 118.671 38.8754 119.828 36.8194C119.907 36.6784 119.977 36.5447 120.037 36.4182M120.037 36.4182C121.222 33.9439 118.975 34.2198 119.661 35.7639C119.771 36.0104 119.897 36.2274 120.037 36.4182ZM120.037 36.4182C121.253 38.0714 123.54 37.7639 125.439 37.7639C131.999 37.7639 154.439 46.8883 154.439 33.7639" stroke="#BD473B" stroke-width="3" stroke-linecap="round"/>
</svg>
