<svg width="148" height="132" viewBox="0 0 148 132" fill="none" xmlns="http://www.w3.org/2000/svg">
<line y1="-0.5" x2="111.504" y2="-0.5" transform="matrix(0.210722 0.977546 -0.985929 0.167164 13 11)" stroke="#B7B4DB"/>
<line y1="-0.5" x2="86.8509" y2="-0.5" transform="matrix(0.280941 0.959725 -0.974503 0.224375 110.6 11)" stroke="#B7B4DB"/>
<line x1="110" y1="11.5" x2="13" y2="11.5" stroke="#B7B4DB"/>
<line y1="-0.5" x2="52.6349" y2="-0.5" transform="matrix(-0.995818 0.0913618 -0.115858 -0.993266 105.178 26.2279)" stroke="#B7B4DB"/>
<line y1="-0.5" x2="52.0137" y2="-0.5" transform="matrix(-0.990337 0.13868 -0.175279 -0.984519 110.6 51.875)" stroke="#B7B4DB"/>
<line y1="-0.5" x2="52.4094" y2="-0.5" transform="matrix(-0.965616 0.259972 -0.323848 -0.946109 118.733 80.7279)" stroke="#B7B4DB"/>
<line y1="-0.5" x2="101.788" y2="-0.5" transform="matrix(-0.967736 0.251966 -0.314256 -0.949338 135 94.3529)" stroke="#B7B4DB"/>
<g filter="url(#filter0_d_45_747)">
<path d="M40.0571 46L25 35.6667L31.2 24.5385L40.0571 35.6667L48.0286 15L56 24.5385L40.0571 46Z" fill="#D1F7FF"/>
<path d="M40.0571 46L25 35.6667L31.2 24.5385L40.0571 35.6667L48.0286 15L56 24.5385L40.0571 46Z" stroke="black" stroke-width="2" stroke-linecap="round"/>
</g>
<g filter="url(#filter1_d_45_747)">
<path d="M48.0286 74L32 63.6667L38.6 52.5385L48.0286 63.6667L56.5143 43L65 52.5385L48.0286 74Z" fill="#FFE4BB"/>
<path d="M48.0286 74L32 63.6667L38.6 52.5385L48.0286 63.6667L56.5143 43L65 52.5385L48.0286 74Z" stroke="black" stroke-width="2" stroke-linecap="round"/>
</g>
<g filter="url(#filter2_d_45_747)">
<path d="M58.5429 106L43 95.3333L49.4 83.8462L58.5429 95.3333L66.7714 74L75 83.8462L58.5429 106Z" fill="#D1F7FF"/>
<path d="M58.5429 106L43 95.3333L49.4 83.8462L58.5429 95.3333L66.7714 74L75 83.8462L58.5429 106Z" stroke="black" stroke-width="2" stroke-linecap="round"/>
</g>
<defs>
<filter id="filter0_d_45_747" x="23.6831" y="13.0555" width="33.5898" height="37.314" filterUnits="userSpaceOnUse" color-interpolation-filters="sRGB">
<feFlood flood-opacity="0" result="BackgroundImageFix"/>
<feColorMatrix in="SourceAlpha" type="matrix" values="0 0 0 0 0 0 0 0 0 0 0 0 0 0 0 0 0 0 127 0" result="hardAlpha"/>
<feOffset dy="3"/>
<feComposite in2="hardAlpha" operator="out"/>
<feColorMatrix type="matrix" values="0 0 0 0 0 0 0 0 0 0 0 0 0 0 0 0 0 0 1 0"/>
<feBlend mode="normal" in2="BackgroundImageFix" result="effect1_dropShadow_45_747"/>
<feBlend mode="normal" in="SourceGraphic" in2="effect1_dropShadow_45_747" result="shape"/>
</filter>
<filter id="filter1_d_45_747" x="30.6484" y="41.1392" width="35.6562" height="37.1932" filterUnits="userSpaceOnUse" color-interpolation-filters="sRGB">
<feFlood flood-opacity="0" result="BackgroundImageFix"/>
<feColorMatrix in="SourceAlpha" type="matrix" values="0 0 0 0 0 0 0 0 0 0 0 0 0 0 0 0 0 0 127 0" result="hardAlpha"/>
<feOffset dy="3"/>
<feComposite in2="hardAlpha" operator="out"/>
<feColorMatrix type="matrix" values="0 0 0 0 0 0 0 0 0 0 0 0 0 0 0 0 0 0 1 0"/>
<feBlend mode="normal" in2="BackgroundImageFix" result="effect1_dropShadow_45_747"/>
<feBlend mode="normal" in="SourceGraphic" in2="effect1_dropShadow_45_747" result="shape"/>
</filter>
<filter id="filter2_d_45_747" x="41.6831" y="72.0555" width="34.5898" height="38.314" filterUnits="userSpaceOnUse" color-interpolation-filters="sRGB">
<feFlood flood-opacity="0" result="BackgroundImageFix"/>
<feColorMatrix in="SourceAlpha" type="matrix" values="0 0 0 0 0 0 0 0 0 0 0 0 0 0 0 0 0 0 127 0" result="hardAlpha"/>
<feOffset dy="3"/>
<feComposite in2="hardAlpha" operator="out"/>
<feColorMatrix type="matrix" values="0 0 0 0 0 0 0 0 0 0 0 0 0 0 0 0 0 0 1 0"/>
<feBlend mode="normal" in2="BackgroundImageFix" result="effect1_dropShadow_45_747"/>
<feBlend mode="normal" in="SourceGraphic" in2="effect1_dropShadow_45_747" result="shape"/>
</filter>
</defs>
</svg>
