<svg width="156" height="65" viewBox="0 0 156 65" fill="none" xmlns="http://www.w3.org/2000/svg">
<path d="M9.43896 17.7638C6.41097 20.3486 1.19293 25.0177 2.10563 29.7638C3.37031 36.3401 13.0157 35.4973 17.6612 34.7638C26.4445 33.3769 33.0087 28.9249 38.2167 21.7638C39.5681 19.9056 46.9945 12.1762 46.9945 9.98599C46.9945 9.79551 44.2237 12.9764 44.2167 12.986C41.8493 16.2478 39.5701 19.5641 37.439 22.986C31.6533 32.2756 25.8772 41.5283 19.6612 50.5415C18.6855 51.9563 11.7857 62.6393 12.8834 60.0971C17.4951 49.4174 26.7788 40.298 33.939 31.3193C41.5781 21.74 49.8918 11.6651 60.3279 4.98599C63.2827 3.09487 71.8024 -1.14959 70.2167 5.98599C66.6688 21.9518 41.0769 40.2874 24.7167 32.6527C18.3688 29.6903 29.0976 27.8749 31.0501 27.8749C40.1935 27.8749 43.8524 32.7197 48.4945 39.8193C55.097 49.9172 61.7532 55.6136 73.5501 59.1527C84.251 62.3629 96.9902 65.3779 106.439 58.7638" stroke="#4774EE" stroke-width="3" stroke-linecap="round"/>
<path d="M56.439 41.7639C62.144 41.0156 71.1809 42.2049 74.8834 36.8194C75.7733 35.525 77.8656 29.8647 73.939 31.375C71.0455 32.4878 67.2586 37.5298 67.6056 40.6527C68.1574 45.6187 76.9931 42.926 79.4945 42.2639C84.727 40.8788 90.0432 39.5187 92.2167 33.9861C93.9587 29.5519 92.4707 36.1448 92.439 37.5416C92.1753 49.1424 105.335 29.9475 104.661 33.7639C104.056 37.1958 106.548 41.7213 110.439 40.2083C112.314 39.4791 115.851 32.875 115.772 32.875C113.593 32.875 108.96 38.0255 110.106 40.1527C112.067 43.796 118.655 38.904 119.828 36.8194C121.459 33.919 118.94 34.1408 119.661 35.7639C120.72 38.1465 123.321 37.7639 125.439 37.7639C131.999 37.7639 154.439 46.8883 154.439 33.7639" stroke="#4774EE" stroke-width="3" stroke-linecap="round"/>
</svg>
